<mxfile host="app.diagrams.net" modified="2023-08-21T16:53:26.884Z" agent="Mozilla/5.0 (Macintosh; Intel Mac OS X 10_15_7) AppleWebKit/537.36 (KHTML, like Gecko) Chrome/115.0.0.0 Safari/537.36" etag="empjzNnKFB5027MP6kXL" version="21.6.8" type="device">
  <diagram name="Page-1" id="ZqO1Vf14sX_mO_3u8_4U">
    <mxGraphModel dx="1137" dy="732" grid="1" gridSize="10" guides="1" tooltips="1" connect="1" arrows="1" fold="1" page="1" pageScale="1" pageWidth="1100" pageHeight="850" math="0" shadow="0">
      <root>
        <mxCell id="0" />
        <mxCell id="1" parent="0" />
        <mxCell id="NBq2KwR3q2TsYHLd0rBU-1" value="&lt;font style=&quot;font-size: 28px;&quot;&gt;Data Types&lt;/font&gt;" style="text;html=1;strokeColor=none;fillColor=none;align=center;verticalAlign=middle;whiteSpace=wrap;rounded=0;" vertex="1" parent="1">
          <mxGeometry x="500" y="40" width="150" height="30" as="geometry" />
        </mxCell>
        <mxCell id="NBq2KwR3q2TsYHLd0rBU-2" value="" style="endArrow=none;html=1;rounded=0;entryX=0.5;entryY=1;entryDx=0;entryDy=0;strokeWidth=2;" edge="1" parent="1" target="NBq2KwR3q2TsYHLd0rBU-1">
          <mxGeometry width="50" height="50" relative="1" as="geometry">
            <mxPoint x="575" y="120" as="sourcePoint" />
            <mxPoint x="570" y="340" as="targetPoint" />
          </mxGeometry>
        </mxCell>
        <mxCell id="NBq2KwR3q2TsYHLd0rBU-3" value="&lt;font style=&quot;font-size: 20px;&quot;&gt;Numerics&lt;/font&gt;" style="rounded=0;whiteSpace=wrap;html=1;" vertex="1" parent="1">
          <mxGeometry x="190" y="150" width="210" height="40" as="geometry" />
        </mxCell>
        <mxCell id="NBq2KwR3q2TsYHLd0rBU-5" value="&lt;font style=&quot;font-size: 20px;&quot;&gt;Data Structures&lt;/font&gt;" style="rounded=0;whiteSpace=wrap;html=1;" vertex="1" parent="1">
          <mxGeometry x="470" y="150" width="210" height="40" as="geometry" />
        </mxCell>
        <mxCell id="NBq2KwR3q2TsYHLd0rBU-6" value="&lt;font color=&quot;#0000ff&quot; style=&quot;font-size: 20px;&quot;&gt;&lt;b&gt;None&lt;/b&gt;&lt;/font&gt;" style="rounded=0;whiteSpace=wrap;html=1;" vertex="1" parent="1">
          <mxGeometry x="730" y="150" width="210" height="40" as="geometry" />
        </mxCell>
        <mxCell id="NBq2KwR3q2TsYHLd0rBU-7" value="" style="endArrow=none;html=1;rounded=0;strokeWidth=2;" edge="1" parent="1">
          <mxGeometry width="50" height="50" relative="1" as="geometry">
            <mxPoint x="294" y="120" as="sourcePoint" />
            <mxPoint x="575" y="120" as="targetPoint" />
          </mxGeometry>
        </mxCell>
        <mxCell id="NBq2KwR3q2TsYHLd0rBU-8" value="" style="endArrow=none;html=1;rounded=0;strokeWidth=2;" edge="1" parent="1">
          <mxGeometry width="50" height="50" relative="1" as="geometry">
            <mxPoint x="575" y="120" as="sourcePoint" />
            <mxPoint x="836" y="120" as="targetPoint" />
          </mxGeometry>
        </mxCell>
        <mxCell id="NBq2KwR3q2TsYHLd0rBU-9" value="" style="endArrow=none;html=1;rounded=0;exitX=0.5;exitY=0;exitDx=0;exitDy=0;strokeWidth=2;" edge="1" parent="1" source="NBq2KwR3q2TsYHLd0rBU-3">
          <mxGeometry width="50" height="50" relative="1" as="geometry">
            <mxPoint x="490" y="380" as="sourcePoint" />
            <mxPoint x="295" y="120" as="targetPoint" />
          </mxGeometry>
        </mxCell>
        <mxCell id="NBq2KwR3q2TsYHLd0rBU-10" value="" style="endArrow=none;html=1;rounded=0;exitX=0.5;exitY=0;exitDx=0;exitDy=0;strokeWidth=2;" edge="1" parent="1">
          <mxGeometry width="50" height="50" relative="1" as="geometry">
            <mxPoint x="575" y="150" as="sourcePoint" />
            <mxPoint x="575" y="120" as="targetPoint" />
          </mxGeometry>
        </mxCell>
        <mxCell id="NBq2KwR3q2TsYHLd0rBU-11" value="" style="endArrow=none;html=1;rounded=0;strokeWidth=2;exitX=0.5;exitY=0;exitDx=0;exitDy=0;" edge="1" parent="1" source="NBq2KwR3q2TsYHLd0rBU-6">
          <mxGeometry width="50" height="50" relative="1" as="geometry">
            <mxPoint x="585" y="160" as="sourcePoint" />
            <mxPoint x="835" y="120" as="targetPoint" />
          </mxGeometry>
        </mxCell>
        <mxCell id="NBq2KwR3q2TsYHLd0rBU-12" value="" style="endArrow=none;html=1;rounded=0;strokeWidth=2;entryX=0.5;entryY=1;entryDx=0;entryDy=0;" edge="1" parent="1" target="NBq2KwR3q2TsYHLd0rBU-3">
          <mxGeometry width="50" height="50" relative="1" as="geometry">
            <mxPoint x="295" y="230" as="sourcePoint" />
            <mxPoint x="250" y="210" as="targetPoint" />
          </mxGeometry>
        </mxCell>
        <mxCell id="NBq2KwR3q2TsYHLd0rBU-14" value="&lt;b&gt;&lt;font color=&quot;#0000ff&quot;&gt;Integer&lt;/font&gt;&lt;/b&gt;" style="rounded=1;whiteSpace=wrap;html=1;" vertex="1" parent="1">
          <mxGeometry x="130" y="250" width="90" height="30" as="geometry" />
        </mxCell>
        <mxCell id="NBq2KwR3q2TsYHLd0rBU-15" value="&lt;b&gt;&lt;font color=&quot;#0000ff&quot;&gt;Floating Point&lt;/font&gt;&lt;/b&gt;" style="rounded=1;whiteSpace=wrap;html=1;" vertex="1" parent="1">
          <mxGeometry x="250" y="250" width="90" height="30" as="geometry" />
        </mxCell>
        <mxCell id="NBq2KwR3q2TsYHLd0rBU-16" value="&lt;b&gt;&lt;font color=&quot;#0000ff&quot;&gt;Complex&lt;/font&gt;&lt;/b&gt;" style="rounded=1;whiteSpace=wrap;html=1;" vertex="1" parent="1">
          <mxGeometry x="370" y="250" width="90" height="30" as="geometry" />
        </mxCell>
        <mxCell id="NBq2KwR3q2TsYHLd0rBU-17" value="&lt;b&gt;&lt;font color=&quot;#0000ff&quot;&gt;Boolean&lt;/font&gt;&lt;/b&gt;" style="rounded=1;whiteSpace=wrap;html=1;" vertex="1" parent="1">
          <mxGeometry x="130" y="296" width="90" height="30" as="geometry" />
        </mxCell>
        <mxCell id="NBq2KwR3q2TsYHLd0rBU-18" value="" style="endArrow=none;html=1;rounded=0;strokeWidth=2;" edge="1" parent="1">
          <mxGeometry width="50" height="50" relative="1" as="geometry">
            <mxPoint x="174" y="230" as="sourcePoint" />
            <mxPoint x="416" y="230" as="targetPoint" />
          </mxGeometry>
        </mxCell>
        <mxCell id="NBq2KwR3q2TsYHLd0rBU-19" value="" style="endArrow=none;html=1;rounded=0;strokeWidth=2;exitX=0.5;exitY=0;exitDx=0;exitDy=0;" edge="1" parent="1" source="NBq2KwR3q2TsYHLd0rBU-15">
          <mxGeometry width="50" height="50" relative="1" as="geometry">
            <mxPoint x="305" y="240" as="sourcePoint" />
            <mxPoint x="295" y="230" as="targetPoint" />
          </mxGeometry>
        </mxCell>
        <mxCell id="NBq2KwR3q2TsYHLd0rBU-20" value="" style="endArrow=none;html=1;rounded=0;strokeWidth=2;exitX=0.5;exitY=0;exitDx=0;exitDy=0;" edge="1" parent="1" source="NBq2KwR3q2TsYHLd0rBU-16">
          <mxGeometry width="50" height="50" relative="1" as="geometry">
            <mxPoint x="305" y="260" as="sourcePoint" />
            <mxPoint x="415" y="230" as="targetPoint" />
          </mxGeometry>
        </mxCell>
        <mxCell id="NBq2KwR3q2TsYHLd0rBU-21" value="" style="endArrow=none;html=1;rounded=0;strokeWidth=2;exitX=0.5;exitY=0;exitDx=0;exitDy=0;" edge="1" parent="1" source="NBq2KwR3q2TsYHLd0rBU-14">
          <mxGeometry width="50" height="50" relative="1" as="geometry">
            <mxPoint x="425" y="260" as="sourcePoint" />
            <mxPoint x="175" y="230" as="targetPoint" />
          </mxGeometry>
        </mxCell>
        <mxCell id="NBq2KwR3q2TsYHLd0rBU-22" value="" style="endArrow=none;html=1;rounded=0;strokeWidth=2;exitX=0.5;exitY=0;exitDx=0;exitDy=0;entryX=0.5;entryY=1;entryDx=0;entryDy=0;" edge="1" parent="1" source="NBq2KwR3q2TsYHLd0rBU-17" target="NBq2KwR3q2TsYHLd0rBU-14">
          <mxGeometry width="50" height="50" relative="1" as="geometry">
            <mxPoint x="185" y="260" as="sourcePoint" />
            <mxPoint x="185" y="240" as="targetPoint" />
          </mxGeometry>
        </mxCell>
        <mxCell id="NBq2KwR3q2TsYHLd0rBU-23" value="&lt;font style=&quot;font-size: 20px;&quot;&gt;Ordered&lt;/font&gt;" style="rounded=0;whiteSpace=wrap;html=1;" vertex="1" parent="1">
          <mxGeometry x="495" y="240" width="110" height="40" as="geometry" />
        </mxCell>
        <mxCell id="NBq2KwR3q2TsYHLd0rBU-24" value="&lt;font style=&quot;font-size: 20px;&quot;&gt;Unordered&lt;/font&gt;" style="rounded=0;whiteSpace=wrap;html=1;" vertex="1" parent="1">
          <mxGeometry x="670" y="240" width="130" height="40" as="geometry" />
        </mxCell>
        <mxCell id="NBq2KwR3q2TsYHLd0rBU-25" value="" style="endArrow=none;html=1;rounded=0;strokeWidth=2;" edge="1" parent="1">
          <mxGeometry width="50" height="50" relative="1" as="geometry">
            <mxPoint x="549" y="220" as="sourcePoint" />
            <mxPoint x="736" y="220" as="targetPoint" />
          </mxGeometry>
        </mxCell>
        <mxCell id="NBq2KwR3q2TsYHLd0rBU-26" value="" style="endArrow=none;html=1;rounded=0;strokeWidth=2;exitX=0.5;exitY=0;exitDx=0;exitDy=0;" edge="1" parent="1" source="NBq2KwR3q2TsYHLd0rBU-23">
          <mxGeometry width="50" height="50" relative="1" as="geometry">
            <mxPoint x="425" y="260" as="sourcePoint" />
            <mxPoint x="550" y="220" as="targetPoint" />
          </mxGeometry>
        </mxCell>
        <mxCell id="NBq2KwR3q2TsYHLd0rBU-27" value="" style="endArrow=none;html=1;rounded=0;strokeWidth=2;exitX=0.5;exitY=0;exitDx=0;exitDy=0;" edge="1" parent="1" source="NBq2KwR3q2TsYHLd0rBU-24">
          <mxGeometry width="50" height="50" relative="1" as="geometry">
            <mxPoint x="560" y="250" as="sourcePoint" />
            <mxPoint x="735" y="220" as="targetPoint" />
          </mxGeometry>
        </mxCell>
        <mxCell id="NBq2KwR3q2TsYHLd0rBU-28" value="" style="endArrow=none;html=1;rounded=0;strokeWidth=2;entryX=0.5;entryY=1;entryDx=0;entryDy=0;" edge="1" parent="1" target="NBq2KwR3q2TsYHLd0rBU-5">
          <mxGeometry width="50" height="50" relative="1" as="geometry">
            <mxPoint x="575" y="220" as="sourcePoint" />
            <mxPoint x="750" y="230" as="targetPoint" />
          </mxGeometry>
        </mxCell>
        <mxCell id="NBq2KwR3q2TsYHLd0rBU-29" value="&lt;b&gt;&lt;font color=&quot;#0000ff&quot;&gt;Strings&lt;/font&gt;&lt;/b&gt;" style="rounded=1;whiteSpace=wrap;html=1;" vertex="1" parent="1">
          <mxGeometry x="401" y="326" width="90" height="30" as="geometry" />
        </mxCell>
        <mxCell id="NBq2KwR3q2TsYHLd0rBU-30" value="&lt;b&gt;&lt;font color=&quot;#0000ff&quot;&gt;Lists&lt;/font&gt;&lt;/b&gt;" style="rounded=1;whiteSpace=wrap;html=1;" vertex="1" parent="1">
          <mxGeometry x="504" y="326" width="90" height="30" as="geometry" />
        </mxCell>
        <mxCell id="NBq2KwR3q2TsYHLd0rBU-31" value="&lt;b&gt;&lt;font color=&quot;#0000ff&quot;&gt;Tuples&lt;/font&gt;&lt;/b&gt;" style="rounded=1;whiteSpace=wrap;html=1;" vertex="1" parent="1">
          <mxGeometry x="609" y="326" width="90" height="30" as="geometry" />
        </mxCell>
        <mxCell id="NBq2KwR3q2TsYHLd0rBU-32" value="" style="endArrow=none;html=1;rounded=0;strokeWidth=2;" edge="1" parent="1">
          <mxGeometry width="50" height="50" relative="1" as="geometry">
            <mxPoint x="445" y="307" as="sourcePoint" />
            <mxPoint x="655" y="307" as="targetPoint" />
          </mxGeometry>
        </mxCell>
        <mxCell id="NBq2KwR3q2TsYHLd0rBU-33" value="" style="endArrow=none;html=1;rounded=0;strokeWidth=2;entryX=0.5;entryY=1;entryDx=0;entryDy=0;" edge="1" parent="1">
          <mxGeometry width="50" height="50" relative="1" as="geometry">
            <mxPoint x="550" y="308" as="sourcePoint" />
            <mxPoint x="550" y="280" as="targetPoint" />
          </mxGeometry>
        </mxCell>
        <mxCell id="NBq2KwR3q2TsYHLd0rBU-34" value="" style="endArrow=none;html=1;rounded=0;strokeWidth=2;" edge="1" parent="1">
          <mxGeometry width="50" height="50" relative="1" as="geometry">
            <mxPoint x="550" y="326" as="sourcePoint" />
            <mxPoint x="550" y="308" as="targetPoint" />
          </mxGeometry>
        </mxCell>
        <mxCell id="NBq2KwR3q2TsYHLd0rBU-35" value="" style="endArrow=none;html=1;rounded=0;strokeWidth=2;exitX=0.5;exitY=0;exitDx=0;exitDy=0;" edge="1" parent="1" source="NBq2KwR3q2TsYHLd0rBU-31">
          <mxGeometry width="50" height="50" relative="1" as="geometry">
            <mxPoint x="560" y="336" as="sourcePoint" />
            <mxPoint x="654" y="306" as="targetPoint" />
          </mxGeometry>
        </mxCell>
        <mxCell id="NBq2KwR3q2TsYHLd0rBU-36" value="" style="endArrow=none;html=1;rounded=0;strokeWidth=2;exitX=0.5;exitY=0;exitDx=0;exitDy=0;" edge="1" parent="1" source="NBq2KwR3q2TsYHLd0rBU-29">
          <mxGeometry width="50" height="50" relative="1" as="geometry">
            <mxPoint x="570" y="346" as="sourcePoint" />
            <mxPoint x="446" y="307" as="targetPoint" />
          </mxGeometry>
        </mxCell>
        <mxCell id="NBq2KwR3q2TsYHLd0rBU-37" value="&lt;b&gt;&lt;font color=&quot;#0000ff&quot;&gt;Set&lt;/font&gt;&lt;/b&gt;" style="rounded=1;whiteSpace=wrap;html=1;" vertex="1" parent="1">
          <mxGeometry x="780" y="326" width="90" height="30" as="geometry" />
        </mxCell>
        <mxCell id="NBq2KwR3q2TsYHLd0rBU-38" value="&lt;b&gt;&lt;font color=&quot;#0000ff&quot;&gt;Dictionary&lt;/font&gt;&lt;/b&gt;" style="rounded=1;whiteSpace=wrap;html=1;" vertex="1" parent="1">
          <mxGeometry x="780" y="372" width="90" height="30" as="geometry" />
        </mxCell>
        <mxCell id="NBq2KwR3q2TsYHLd0rBU-39" value="" style="endArrow=none;html=1;rounded=0;strokeWidth=2;entryX=0.5;entryY=1;entryDx=0;entryDy=0;" edge="1" parent="1" target="NBq2KwR3q2TsYHLd0rBU-24">
          <mxGeometry width="50" height="50" relative="1" as="geometry">
            <mxPoint x="735" y="387" as="sourcePoint" />
            <mxPoint x="560" y="290" as="targetPoint" />
          </mxGeometry>
        </mxCell>
        <mxCell id="NBq2KwR3q2TsYHLd0rBU-40" value="" style="endArrow=none;html=1;rounded=0;strokeWidth=2;" edge="1" parent="1">
          <mxGeometry width="50" height="50" relative="1" as="geometry">
            <mxPoint x="734" y="341" as="sourcePoint" />
            <mxPoint x="780" y="341" as="targetPoint" />
          </mxGeometry>
        </mxCell>
        <mxCell id="NBq2KwR3q2TsYHLd0rBU-41" value="" style="endArrow=none;html=1;rounded=0;strokeWidth=2;entryX=0;entryY=0.5;entryDx=0;entryDy=0;" edge="1" parent="1" target="NBq2KwR3q2TsYHLd0rBU-38">
          <mxGeometry width="50" height="50" relative="1" as="geometry">
            <mxPoint x="734" y="386.90999999999997" as="sourcePoint" />
            <mxPoint x="778" y="387" as="targetPoint" />
          </mxGeometry>
        </mxCell>
      </root>
    </mxGraphModel>
  </diagram>
</mxfile>
